<svg width="164" height="31" viewBox="0 0 164 31" fill="none" xmlns="http://www.w3.org/2000/svg">
<path d="M8.81998 22.8327V30.1272L0 17.1938L8.81998 22.8327Z" fill="#0DAFD2"/>
<path d="M17.6407 17.1938L8.82007 30.1272V22.8327L17.6407 17.1938Z" fill="#667BBC"/>
<path d="M17.6407 15.3715L8.82007 10.3401V21.0109L17.6407 15.3715Z" fill="#9E69AC"/>
<path d="M17.6407 15.3715L8.82007 0V10.3401L17.6407 15.3715Z" fill="#F58B77"/>
<path d="M8.81998 0V10.3401L0 15.3715L8.81998 0Z" fill="#F9EC7B"/>
<path d="M8.81998 10.3401V21.0109L0 15.3715L8.81998 10.3401Z" fill="#54BC7A"/>
<path d="M26.5903 22.3628C26.5903 21.7813 26.7094 21.2664 26.9476 20.8181C27.1858 20.3698 27.5185 20.023 27.9459 19.7778C28.3732 19.5326 28.8671 19.41 29.4275 19.41C29.9669 19.41 30.4467 19.5361 30.8671 19.7883C31.2944 20.0405 31.6271 20.3943 31.8653 20.8496C32.1035 21.305 32.2226 21.8233 32.2226 22.4048V22.8461H28.093C28.114 23.1964 28.2471 23.4801 28.4923 23.6973C28.7375 23.9144 29.0597 24.023 29.459 24.023C29.7392 24.023 29.9984 23.9635 30.2366 23.8444C30.4748 23.7183 30.734 23.5046 31.0142 23.2034L31.9494 24.1596C31.6271 24.5169 31.2559 24.7971 30.8355 25.0002C30.4152 25.1964 29.9564 25.2945 29.459 25.2945C28.8916 25.2945 28.3907 25.1719 27.9564 24.9267C27.522 24.6815 27.1858 24.3382 26.9476 23.8969C26.7094 23.4486 26.5903 22.9372 26.5903 22.3628ZM30.7094 21.7533C30.6814 21.4451 30.5448 21.1894 30.2996 20.9862C30.0615 20.7831 29.7707 20.6815 29.4275 20.6815C29.0702 20.6815 28.776 20.7796 28.5448 20.9757C28.3136 21.1719 28.17 21.4311 28.114 21.7533H30.7094Z" fill="#36364C"/>
<path d="M37.0814 20.9127V23.1509C37.0814 23.34 37.1234 23.4766 37.2075 23.5607C37.2985 23.6447 37.4456 23.6868 37.6488 23.6868H38.9202V25.1369H37.5122C36.8957 25.1369 36.4194 24.9932 36.0831 24.706C35.7469 24.4118 35.5787 23.995 35.5787 23.4556V20.9127H34.2127V19.5676H35.5787V18.1491H37.0814V19.5676H39.267V20.9127H37.0814Z" fill="#36364C"/>
<path d="M41.4673 17.4661H42.9699V20.0825H42.9909C43.3832 19.6342 43.9191 19.41 44.5986 19.41C45.0049 19.41 45.3657 19.5081 45.681 19.7042C45.9962 19.9004 46.2414 20.1771 46.4165 20.5344C46.5916 20.8916 46.6792 21.305 46.6792 21.7743V25.1369H45.1766V21.974C45.1766 21.6027 45.082 21.312 44.8929 21.1018C44.7037 20.8916 44.4445 20.7866 44.1153 20.7866C43.758 20.7866 43.4778 20.8916 43.2746 21.1018C43.0715 21.305 42.9699 21.5887 42.9699 21.9529V25.1369H41.4673V17.4661Z" fill="#36364C"/>
<path d="M48.5117 22.3628C48.5117 21.7813 48.6308 21.2664 48.869 20.8181C49.1071 20.3698 49.4399 20.023 49.8672 19.7778C50.2945 19.5326 50.7884 19.41 51.3488 19.41C51.8882 19.41 52.3681 19.5361 52.7884 19.7883C53.2158 20.0405 53.5485 20.3943 53.7867 20.8496C54.0249 21.305 54.144 21.8233 54.144 22.4048V22.8461H50.0143C50.0353 23.1964 50.1684 23.4801 50.4136 23.6973C50.6588 23.9144 50.9811 24.023 51.3804 24.023C51.6606 24.023 51.9198 23.9635 52.1579 23.8444C52.3961 23.7183 52.6553 23.5046 52.9355 23.2034L53.8707 24.1596C53.5485 24.5169 53.1772 24.7971 52.7569 25.0002C52.3366 25.1964 51.8777 25.2945 51.3804 25.2945C50.8129 25.2945 50.3121 25.1719 49.8777 24.9267C49.4434 24.6815 49.1071 24.3382 48.869 23.8969C48.6308 23.4486 48.5117 22.9372 48.5117 22.3628ZM52.6308 21.7533C52.6028 21.4451 52.4662 21.1894 52.221 20.9862C51.9828 20.7831 51.6921 20.6815 51.3488 20.6815C50.9916 20.6815 50.6973 20.7796 50.4662 20.9757C50.235 21.1719 50.0914 21.4311 50.0353 21.7533H52.6308Z" fill="#36364C"/>
<path d="M56.4913 19.5676H57.9309V20.0825H57.9519C58.1901 19.8444 58.4353 19.6727 58.6875 19.5676C58.9467 19.4626 59.2409 19.41 59.5701 19.41C60.0535 19.41 60.4703 19.5536 60.8206 19.8409C61.1709 20.1211 61.416 20.5064 61.5561 20.9967L60.1481 21.4591C59.987 21.0037 59.6542 20.7761 59.1498 20.7761C58.7715 20.7761 58.4843 20.8881 58.2882 21.1123C58.092 21.3295 57.994 21.6307 57.994 22.016V25.1369H56.4913V19.5676Z" fill="#36364C"/>
<path d="M63.1259 22.3628C63.1259 21.7813 63.245 21.2664 63.4832 20.8181C63.7214 20.3698 64.0541 20.023 64.4815 19.7778C64.9088 19.5326 65.4027 19.41 65.9631 19.41C66.5025 19.41 66.9824 19.5361 67.4027 19.7883C67.83 20.0405 68.1627 20.3943 68.4009 20.8496C68.6391 21.305 68.7582 21.8233 68.7582 22.4048V22.8461H64.6286C64.6496 23.1964 64.7827 23.4801 65.0279 23.6973C65.2731 23.9144 65.5953 24.023 65.9946 24.023C66.2748 24.023 66.534 23.9635 66.7722 23.8444C67.0104 23.7183 67.2696 23.5046 67.5498 23.2034L68.485 24.1596C68.1627 24.5169 67.7915 24.7971 67.3711 25.0002C66.9508 25.1964 66.492 25.2945 65.9946 25.2945C65.4272 25.2945 64.9263 25.1719 64.492 24.9267C64.0576 24.6815 63.7214 24.3382 63.4832 23.8969C63.245 23.4486 63.1259 22.9372 63.1259 22.3628ZM67.245 21.7533C67.217 21.4451 67.0804 21.1894 66.8352 20.9862C66.5971 20.7831 66.3063 20.6815 65.9631 20.6815C65.6058 20.6815 65.3116 20.7796 65.0804 20.9757C64.8492 21.1719 64.7056 21.4311 64.6496 21.7533H67.245Z" fill="#36364C"/>
<path d="M70.7483 23.2454V19.5676H72.2509V22.8987C72.2509 23.5782 72.5872 23.9179 73.2597 23.9179C73.5609 23.9179 73.7991 23.8269 73.9742 23.6447C74.1564 23.4556 74.2474 23.2069 74.2474 22.8987V19.5676H75.7501V25.1369H74.3105V24.643H74.2895C74.1354 24.8391 73.9217 24.9967 73.6485 25.1158C73.3823 25.2349 73.1021 25.2945 72.8079 25.2945C72.1494 25.2945 71.6415 25.1158 71.2842 24.7586C70.9269 24.3943 70.7483 23.8899 70.7483 23.2454Z" fill="#36364C"/>
<path d="M77.5826 19.5676H78.9066V20.051H78.9276C79.0467 19.8619 79.1973 19.7183 79.3794 19.6202C79.5686 19.5151 79.7752 19.4626 79.9994 19.4626C80.4407 19.4626 80.7945 19.6692 81.0607 20.0825H81.0817C81.3619 19.6692 81.7472 19.4626 82.2376 19.4626C82.6439 19.4626 82.9731 19.6062 83.2253 19.8934C83.4775 20.1806 83.6036 20.5554 83.6036 21.0177V25.1369H82.2166V21.2804C82.2166 21.1193 82.1745 20.9967 82.0905 20.9127C82.0064 20.8286 81.8873 20.7866 81.7332 20.7866C81.5861 20.7866 81.467 20.8356 81.3759 20.9337C81.2919 21.0247 81.2498 21.1508 81.2498 21.312V25.1369H79.9363V21.2804C79.9363 21.1263 79.8943 21.0072 79.8102 20.9232C79.7332 20.8321 79.6211 20.7866 79.474 20.7866C79.3199 20.7866 79.1973 20.8356 79.1062 20.9337C79.0151 21.0247 78.9696 21.1508 78.9696 21.312V25.1369H77.5826V19.5676Z" fill="#36364C"/>
<path d="M94.0357 21.5326H92.5646V20.1876H94.0357V19.368C94.0357 18.8776 94.1968 18.4923 94.5191 18.2121C94.8483 17.9249 95.3001 17.7813 95.8746 17.7813H97.4928V19.1158H96.0532C95.9061 19.1158 95.794 19.1543 95.717 19.2314C95.6399 19.3084 95.6014 19.417 95.6014 19.5571V20.1876H97.8291V21.5326H95.6014V25.1369H94.0357V21.5326Z" fill="#36364C"/>
<path d="M99.6615 22.3522C99.6615 21.7778 99.7806 21.2699 100.019 20.8286C100.257 20.3803 100.59 20.0335 101.017 19.7883C101.451 19.5361 101.945 19.41 102.499 19.41C103.059 19.41 103.553 19.5361 103.98 19.7883C104.415 20.0335 104.751 20.3803 104.989 20.8286C105.227 21.2699 105.346 21.7778 105.346 22.3522C105.346 22.9267 105.227 23.4381 104.989 23.8864C104.751 24.3277 104.415 24.6745 103.98 24.9267C103.553 25.1719 103.059 25.2945 102.499 25.2945C101.945 25.2945 101.451 25.1719 101.017 24.9267C100.59 24.6745 100.257 24.3277 100.019 23.8864C99.7806 23.4381 99.6615 22.9267 99.6615 22.3522ZM103.844 22.3522C103.844 21.8619 103.725 21.4801 103.486 21.2069C103.255 20.9267 102.926 20.7866 102.499 20.7866C102.078 20.7866 101.749 20.9267 101.511 21.2069C101.28 21.4801 101.164 21.8619 101.164 22.3522C101.164 22.8426 101.28 23.2279 101.511 23.5081C101.749 23.7813 102.078 23.9179 102.499 23.9179C102.919 23.9179 103.248 23.7778 103.486 23.4976C103.725 23.2174 103.844 22.8356 103.844 22.3522Z" fill="#36364C"/>
<path d="M107.284 23.2454V19.5676H108.787V22.8987C108.787 23.5782 109.123 23.9179 109.795 23.9179C110.097 23.9179 110.335 23.8269 110.51 23.6447C110.692 23.4556 110.783 23.2069 110.783 22.8987V19.5676H112.286V25.1369H110.846V24.643H110.825C110.671 24.8391 110.457 24.9967 110.184 25.1158C109.918 25.2349 109.638 25.2945 109.343 25.2945C108.685 25.2945 108.177 25.1158 107.82 24.7586C107.463 24.3943 107.284 23.8899 107.284 23.2454Z" fill="#36364C"/>
<path d="M114.538 19.5676H116.041V20.093H116.062C116.286 19.8689 116.528 19.7007 116.787 19.5887C117.046 19.4696 117.341 19.41 117.67 19.41C118.034 19.41 118.374 19.4976 118.689 19.6727C119.004 19.8409 119.26 20.1035 119.456 20.4608C119.652 20.8111 119.75 21.2489 119.75 21.7743V25.1369H118.248V21.974C118.248 21.6167 118.157 21.3295 117.975 21.1123C117.792 20.8951 117.53 20.7866 117.186 20.7866C116.829 20.7866 116.549 20.8916 116.346 21.1018C116.143 21.305 116.041 21.5887 116.041 21.9529V25.1369H114.538V19.5676Z" fill="#36364C"/>
<path d="M121.467 22.3522C121.467 21.7918 121.576 21.2874 121.793 20.8391C122.01 20.3908 122.315 20.0405 122.707 19.7883C123.1 19.5361 123.544 19.41 124.042 19.41C124.672 19.41 125.166 19.5782 125.523 19.9144H125.544V17.4661H127.047V25.1369H125.66V24.6535H125.639C125.226 25.0808 124.686 25.2945 124.021 25.2945C123.53 25.2945 123.089 25.1719 122.697 24.9267C122.311 24.6815 122.01 24.3382 121.793 23.8969C121.576 23.4486 121.467 22.9337 121.467 22.3522ZM125.544 22.7095V21.9845C125.544 21.7743 125.488 21.5782 125.376 21.396C125.264 21.2139 125.107 21.0668 124.903 20.9547C124.707 20.8426 124.487 20.7866 124.241 20.7866C123.849 20.7866 123.537 20.9302 123.306 21.2174C123.082 21.4976 122.97 21.8759 122.97 22.3522C122.97 22.8216 123.086 23.1999 123.317 23.4871C123.548 23.7743 123.853 23.9179 124.231 23.9179C124.609 23.9179 124.921 23.8023 125.166 23.5712C125.418 23.333 125.544 23.0458 125.544 22.7095Z" fill="#36364C"/>
<path d="M129.237 23.6447C129.237 23.1263 129.412 22.7235 129.762 22.4363C130.119 22.1491 130.711 21.9389 131.538 21.8058C131.972 21.7358 132.267 21.6587 132.421 21.5747C132.582 21.4836 132.662 21.3645 132.662 21.2174C132.662 21.0493 132.585 20.9162 132.431 20.8181C132.277 20.72 132.067 20.671 131.801 20.671C131.499 20.671 131.237 20.762 131.013 20.9442C130.795 21.1263 130.655 21.368 130.592 21.6692L129.195 21.354C129.265 20.9757 129.422 20.6395 129.668 20.3452C129.913 20.051 130.221 19.8233 130.592 19.6622C130.964 19.4941 131.366 19.41 131.801 19.41C132.515 19.41 133.086 19.6097 133.514 20.009C133.941 20.4083 134.155 20.9407 134.155 21.6062V25.1369H132.809V24.5169H132.788C132.627 24.7621 132.4 24.9547 132.105 25.0948C131.818 25.2279 131.492 25.2945 131.128 25.2945C130.764 25.2945 130.438 25.2244 130.151 25.0843C129.864 24.9442 129.64 24.7481 129.478 24.4959C129.317 24.2437 129.237 23.96 129.237 23.6447ZM132.725 23.0668V22.4363H132.704C132.641 22.5414 132.536 22.6255 132.389 22.6885C132.242 22.7516 132.011 22.8146 131.696 22.8776C131.303 22.9617 131.034 23.0528 130.887 23.1509C130.739 23.2419 130.666 23.3715 130.666 23.5396C130.666 23.7008 130.729 23.8234 130.855 23.9074C130.988 23.9915 131.177 24.0335 131.422 24.0335C131.647 24.0335 131.86 23.9915 132.063 23.9074C132.267 23.8164 132.428 23.6973 132.547 23.5502C132.666 23.396 132.725 23.2349 132.725 23.0668Z" fill="#36364C"/>
<path d="M139.381 20.9127V23.1509C139.381 23.34 139.423 23.4766 139.507 23.5607C139.598 23.6447 139.745 23.6868 139.948 23.6868H141.22V25.1369H139.812C139.195 25.1369 138.719 24.9932 138.383 24.706C138.047 24.4118 137.878 23.995 137.878 23.4556V20.9127H136.512V19.5676H137.878V18.1491H139.381V19.5676H141.567V20.9127H139.381Z" fill="#36364C"/>
<path d="M149.084 23.7603V25.1369H143.609V23.7603H145.595V20.9442H143.714V19.5676H147.098V23.7603H149.084ZM145.564 17.2139H147.108V18.6955H145.564V17.2139Z" fill="#36364C"/>
<path d="M150.811 22.3522C150.811 21.7778 150.93 21.2699 151.169 20.8286C151.407 20.3803 151.74 20.0335 152.167 19.7883C152.601 19.5361 153.095 19.41 153.649 19.41C154.209 19.41 154.703 19.5361 155.13 19.7883C155.564 20.0335 155.901 20.3803 156.139 20.8286C156.377 21.2699 156.496 21.7778 156.496 22.3522C156.496 22.9267 156.377 23.4381 156.139 23.8864C155.901 24.3277 155.564 24.6745 155.13 24.9267C154.703 25.1719 154.209 25.2945 153.649 25.2945C153.095 25.2945 152.601 25.1719 152.167 24.9267C151.74 24.6745 151.407 24.3277 151.169 23.8864C150.93 23.4381 150.811 22.9267 150.811 22.3522ZM154.994 22.3522C154.994 21.8619 154.874 21.4801 154.636 21.2069C154.405 20.9267 154.076 20.7866 153.649 20.7866C153.228 20.7866 152.899 20.9267 152.661 21.2069C152.43 21.4801 152.314 21.8619 152.314 22.3522C152.314 22.8426 152.43 23.2279 152.661 23.5081C152.899 23.7813 153.228 23.9179 153.649 23.9179C154.069 23.9179 154.398 23.7778 154.636 23.4976C154.874 23.2174 154.994 22.8356 154.994 22.3522Z" fill="#36364C"/>
<path d="M158.381 19.5676H159.884V20.093H159.905C160.129 19.8689 160.371 19.7007 160.63 19.5887C160.889 19.4696 161.183 19.41 161.513 19.41C161.877 19.41 162.217 19.4976 162.532 19.6727C162.847 19.8409 163.103 20.1035 163.299 20.4608C163.495 20.8111 163.593 21.2489 163.593 21.7743V25.1369H162.091V21.974C162.091 21.6167 161.999 21.3295 161.817 21.1123C161.635 20.8951 161.372 20.7866 161.029 20.7866C160.672 20.7866 160.392 20.8916 160.189 21.1018C159.985 21.305 159.884 21.5887 159.884 21.9529V25.1369H158.381V19.5676Z" fill="#36364C"/>
<path d="M34.2237 10.4095V12.2452H26.9231V10.4095H29.5715V6.65415H27.0632V4.81851H31.5753V10.4095H34.2237ZM29.5294 1.67969H31.5893V3.65546H29.5294V1.67969Z" fill="#989898"/>
<path d="M36.8775 4.81851H38.8813V5.51913H38.9093C39.2083 5.2202 39.5306 4.996 39.8762 4.84653C40.2218 4.68772 40.6142 4.60832 41.0533 4.60832C41.539 4.60832 41.9921 4.72509 42.4125 4.95863C42.8329 5.18283 43.1738 5.53315 43.4354 6.00957C43.697 6.47666 43.8277 7.06052 43.8277 7.76115V12.2452H41.8239V8.02739C41.8239 7.55096 41.7025 7.16795 41.4596 6.87836C41.2167 6.58876 40.8664 6.44396 40.4087 6.44396C39.9322 6.44396 39.5586 6.58409 39.2877 6.86434C39.0168 7.13525 38.8813 7.51359 38.8813 7.99936V12.2452H36.8775V4.81851Z" fill="#989898"/>
<path d="M53.7121 10.4095V12.2452H46.4115V10.4095H49.0599V6.65415H46.5517V4.81851H51.0637V10.4095H53.7121ZM49.0179 1.67969H51.0777V3.65546H49.0179V1.67969Z" fill="#989898"/>
<path d="M60.2614 6.61212V9.5968C60.2614 9.84902 60.3175 10.0312 60.4296 10.1433C60.551 10.2554 60.7472 10.3114 61.0181 10.3114H62.7136V12.2452H60.836C60.0139 12.2452 59.3786 12.0537 58.9302 11.6707C58.4818 11.2783 58.2576 10.7225 58.2576 10.0032V6.61212H56.436V4.81851H58.2576V2.92681H60.2614V4.81851H63.1761V6.61212H60.2614Z" fill="#989898"/>
<path d="M73.2005 10.4095V12.2452H65.9V10.4095H68.5483V6.65415H66.0401V4.81851H70.5521V10.4095H73.2005ZM68.5063 1.67969H70.5662V3.65546H68.5063V1.67969Z" fill="#989898"/>
<path d="M75.9665 10.2554C75.9665 9.5641 76.2 9.02695 76.6671 8.64394C77.1435 8.26093 77.9329 7.98068 79.0352 7.80319C79.6144 7.70977 80.0068 7.60701 80.2123 7.49491C80.4272 7.37347 80.5346 7.21466 80.5346 7.01848C80.5346 6.79428 80.4318 6.61679 80.2263 6.486C80.0208 6.35522 79.7405 6.28983 79.3855 6.28983C78.9839 6.28983 78.6335 6.41127 78.3346 6.65415C78.045 6.89704 77.8582 7.21933 77.7741 7.62102L75.9104 7.20064C76.0038 6.69619 76.214 6.24779 76.541 5.85544C76.868 5.46308 77.279 5.15948 77.7741 4.94462C78.2692 4.72042 78.8064 4.60832 79.3855 4.60832C80.3384 4.60832 81.0998 4.87456 81.6696 5.40703C82.2394 5.93951 82.5244 6.64948 82.5244 7.53695V12.2452H80.7308V11.4184H80.7027C80.4879 11.7454 80.1843 12.0023 79.7919 12.1891C79.4089 12.3666 78.9745 12.4554 78.4887 12.4554C78.003 12.4554 77.5686 12.3619 77.1856 12.1751C76.8026 11.9883 76.5036 11.7267 76.2888 11.3904C76.0739 11.0541 75.9665 10.6758 75.9665 10.2554ZM80.6187 9.4847V8.64394H80.5906C80.5066 8.78407 80.3664 8.89617 80.1703 8.98024C79.9741 9.06432 79.6658 9.14839 79.2454 9.23247C78.7223 9.34457 78.3626 9.46601 78.1665 9.5968C77.9703 9.71824 77.8722 9.89106 77.8722 10.1153C77.8722 10.3301 77.9563 10.4936 78.1244 10.6057C78.3019 10.7178 78.5541 10.7739 78.8811 10.7739C79.18 10.7739 79.465 10.7178 79.7359 10.6057C80.0068 10.4843 80.2216 10.3255 80.3804 10.1293C80.5392 9.92376 80.6187 9.7089 80.6187 9.4847Z" fill="#989898"/>
<path d="M89.4941 6.61212V9.5968C89.4941 9.84902 89.5501 10.0312 89.6622 10.1433C89.7837 10.2554 89.9799 10.3114 90.2508 10.3114H91.9463V12.2452H90.0686C89.2465 12.2452 88.6113 12.0537 88.1629 11.6707C87.7145 11.2783 87.4903 10.7225 87.4903 10.0032V6.61212H85.6687V4.81851H87.4903V2.92681H89.4941V4.81851H92.4087V6.61212H89.4941Z" fill="#989898"/>
<path d="M102.433 10.4095V12.2452H95.1326V10.4095H97.781V6.65415H95.2728V4.81851H99.7848V10.4095H102.433ZM97.739 1.67969H99.7988V3.65546H97.739V1.67969Z" fill="#989898"/>
<path d="M104.316 4.81851H106.572L108.506 9.66686H108.534L110.468 4.81851H112.724L109.361 12.2452H107.679L104.316 4.81851Z" fill="#989898"/>
<path d="M114.481 8.54585C114.481 7.77049 114.64 7.08387 114.957 6.486C115.275 5.88813 115.719 5.42572 116.289 5.09876C116.858 4.7718 117.517 4.60832 118.264 4.60832C118.984 4.60832 119.624 4.77647 120.184 5.11277C120.754 5.44907 121.198 5.92083 121.515 6.52804C121.833 7.13525 121.992 7.82654 121.992 8.6019V9.19043H116.485C116.513 9.65752 116.69 10.0359 117.017 10.3255C117.344 10.615 117.774 10.7598 118.306 10.7598C118.68 10.7598 119.026 10.6804 119.343 10.5216C119.661 10.3535 120.007 10.0686 120.38 9.66686L121.627 10.942C121.198 11.4184 120.703 11.7921 120.142 12.063C119.582 12.3246 118.97 12.4554 118.306 12.4554C117.55 12.4554 116.882 12.2919 116.303 11.9649C115.723 11.638 115.275 11.1802 114.957 10.5917C114.64 9.99382 114.481 9.31187 114.481 8.54585ZM119.974 7.73312C119.937 7.32209 119.754 6.98111 119.427 6.7102C119.11 6.43929 118.722 6.30384 118.264 6.30384C117.788 6.30384 117.396 6.43462 117.087 6.69619C116.779 6.95776 116.587 7.3034 116.513 7.73312H119.974Z" fill="#989898"/>
<path d="M136.127 11.6006H136.099V12.2452H134.25V2.01599H136.253V5.28092H136.281C136.758 4.83252 137.416 4.60832 138.257 4.60832C138.92 4.60832 139.514 4.77647 140.037 5.11277C140.56 5.44907 140.966 5.91616 141.256 6.51403C141.546 7.1119 141.69 7.7845 141.69 8.53184C141.69 9.3072 141.546 9.99382 141.256 10.5917C140.966 11.1802 140.56 11.638 140.037 11.9649C139.523 12.2919 138.939 12.4554 138.285 12.4554C137.398 12.4554 136.678 12.1704 136.127 11.6006ZM139.687 8.53184C139.687 7.8966 139.532 7.39215 139.224 7.01848C138.925 6.63547 138.514 6.44396 137.991 6.44396C137.664 6.44396 137.365 6.5187 137.094 6.66817C136.833 6.81763 136.627 7.01381 136.478 7.2567C136.328 7.49958 136.253 7.76115 136.253 8.0414V9.00827C136.253 9.45667 136.417 9.83968 136.744 10.1573C137.08 10.4656 137.501 10.6197 138.005 10.6197C138.509 10.6197 138.916 10.4282 139.224 10.0452C139.532 9.66219 139.687 9.15774 139.687 8.53184Z" fill="#989898"/>
<path d="M146.502 11.9509L143.545 4.81851H145.647L147.497 9.56877H147.525L149.361 4.81851H151.463L147.147 15.398H145.059L146.502 11.9509Z" fill="#989898"/>
</svg>
